<svg width="14" height="14" viewBox="0 0 14 14" fill="none" xmlns="http://www.w3.org/2000/svg">
<path d="M5.66667 11V10.9287C5.66667 10.3987 5.336 9.93667 4.922 9.606C4.38164 9.17507 3.9886 8.58682 3.79727 7.92268C3.60594 7.25853 3.62579 6.55134 3.85406 5.89897C4.08234 5.24661 4.50776 4.68133 5.07144 4.28138C5.63512 3.88143 6.30918 3.66659 7.00033 3.66659C7.69149 3.66659 8.36555 3.88143 8.92923 4.28138C9.49291 4.68133 9.91833 5.24661 10.1466 5.89897C10.3749 6.55134 10.3947 7.25853 10.2034 7.92268C10.0121 8.58682 9.61903 9.17507 9.07867 9.606C8.664 9.93733 8.33333 10.3987 8.33333 10.9287V11M5.66667 11V12.3333C5.66667 12.5101 5.7369 12.6797 5.86193 12.8047C5.98695 12.9298 6.15652 13 6.33333 13H7.66667C7.84348 13 8.01305 12.9298 8.13807 12.8047C8.2631 12.6797 8.33333 12.5101 8.33333 12.3333V11M5.66667 11H8.33333M12.3333 7H13M1.66667 7H1M7 1.66667V1M10.7713 3.22867L11.2427 2.75733M3.22933 3.22867L2.75733 2.75733M7 9V7.66667" stroke="#2D3F4C" stroke-linecap="round" stroke-linejoin="round"/>
</svg>
