<svg width="114" height="26" viewBox="0 0 114 26" fill="none" xmlns="http://www.w3.org/2000/svg">
<path d="M7.54 0H18.46C22.62 0 26 3.38 26 7.54V18.46C26 20.4597 25.2056 22.3776 23.7916 23.7916C22.3776 25.2056 20.4597 26 18.46 26H7.54C3.38 26 0 22.62 0 18.46V7.54C0 5.54027 0.794391 3.62244 2.20842 2.20842C3.62244 0.794391 5.54027 0 7.54 0ZM7.28 2.6C6.03879 2.6 4.84841 3.09307 3.97074 3.97074C3.09307 4.84841 2.6 6.03879 2.6 7.28V18.72C2.6 21.307 4.693 23.4 7.28 23.4H18.72C19.9612 23.4 21.1516 22.9069 22.0293 22.0293C22.9069 21.1516 23.4 19.9612 23.4 18.72V7.28C23.4 4.693 21.307 2.6 18.72 2.6H7.28ZM19.825 4.55C20.256 4.55 20.6693 4.7212 20.974 5.02595C21.2788 5.3307 21.45 5.74402 21.45 6.175C21.45 6.60598 21.2788 7.0193 20.974 7.32405C20.6693 7.62879 20.256 7.8 19.825 7.8C19.394 7.8 18.9807 7.62879 18.6759 7.32405C18.3712 7.0193 18.2 6.60598 18.2 6.175C18.2 5.74402 18.3712 5.3307 18.6759 5.02595C18.9807 4.7212 19.394 4.55 19.825 4.55ZM13 6.5C14.7239 6.5 16.3772 7.18482 17.5962 8.40381C18.8152 9.62279 19.5 11.2761 19.5 13C19.5 14.7239 18.8152 16.3772 17.5962 17.5962C16.3772 18.8152 14.7239 19.5 13 19.5C11.2761 19.5 9.62279 18.8152 8.40381 17.5962C7.18482 16.3772 6.5 14.7239 6.5 13C6.5 11.2761 7.18482 9.62279 8.40381 8.40381C9.62279 7.18482 11.2761 6.5 13 6.5ZM13 9.1C11.9657 9.1 10.9737 9.51089 10.2423 10.2423C9.51089 10.9737 9.1 11.9657 9.1 13C9.1 14.0343 9.51089 15.0263 10.2423 15.7577C10.9737 16.4891 11.9657 16.9 13 16.9C14.0343 16.9 15.0263 16.4891 15.7577 15.7577C16.4891 15.0263 16.9 14.0343 16.9 13C16.9 11.9657 16.4891 10.9737 15.7577 10.2423C15.0263 9.51089 14.0343 9.1 13 9.1Z" fill="#425462"/>
<path d="M100.667 3.66667V1H103.333V3.66667H100.667ZM100.667 25V22.3333H103.333V25H100.667ZM95.3333 3.66667V1H98V3.66667H95.3333ZM95.3333 25V22.3333H98V25H95.3333ZM90 3.66667V1H92.6667V3.66667H90ZM90 9V6.33333H92.6667V9H90ZM90 14.3333V11.6667H92.6667V14.3333H90ZM90 19.6667V17H92.6667V19.6667H90ZM90 25V22.3333H92.6667V25H90ZM106 25V22.3333H108.667V3.66667H106V1H114V3.66667H111.333V22.3333H114V25H106Z" fill="#425462"/>
<path d="M86.3536 12.8536C86.5488 12.6583 86.5488 12.3417 86.3536 12.1464L83.1716 8.96447C82.9763 8.7692 82.6597 8.7692 82.4645 8.96447C82.2692 9.15973 82.2692 9.47631 82.4645 9.67157L85.2929 12.5L82.4645 15.3284C82.2692 15.5237 82.2692 15.8403 82.4645 16.0355C82.6597 16.2308 82.9763 16.2308 83.1716 16.0355L86.3536 12.8536ZM29 13H30.0179V12H29V13ZM32.0536 13H34.0893V12H32.0536V13ZM36.125 13H38.1607V12H36.125V13ZM40.1964 13H42.2321V12H40.1964V13ZM44.2679 13H46.3036V12H44.2679V13ZM48.3393 13H50.375V12H48.3393V13ZM52.4107 13H54.4464V12H52.4107V13ZM56.4821 13H58.5179V12H56.4821V13ZM60.5536 13H62.5893V12H60.5536V13ZM64.625 13H66.6607V12H64.625V13ZM68.6964 13H70.7321V12H68.6964V13ZM72.7679 13H74.8036V12H72.7679V13ZM76.8393 13H78.875V12H76.8393V13ZM80.9107 13H82.9464V12H80.9107V13ZM84.9821 13H86V12H84.9821V13Z" fill="#425462"/>
</svg>
