<svg width="16" height="16" viewBox="0 0 16 16" fill="none" xmlns="http://www.w3.org/2000/svg">
<g clip-path="url(#clip0_150_1134)">
<path d="M8 0C10.1217 0 12.1566 0.842855 13.6569 2.34315C15.1571 3.84344 16 5.87827 16 8C16 10.1217 15.1571 12.1566 13.6569 13.6569C12.1566 15.1571 10.1217 16 8 16C5.87827 16 3.84344 15.1571 2.34315 13.6569C0.842855 12.1566 0 10.1217 0 8C0 5.87827 0.842855 3.84344 2.34315 2.34315C3.84344 0.842855 5.87827 0 8 0ZM3.965 13.096C5.21468 14.0856 6.78443 14.5815 8.37581 14.4893C9.96719 14.3972 11.4692 13.7236 12.5964 12.5964C13.7236 11.4692 14.3972 9.96719 14.4893 8.37581C14.5815 6.78443 14.0856 5.21468 13.096 3.965L3.965 13.096ZM1.5 8C1.49794 9.46512 1.9929 10.8876 2.904 12.035L12.035 2.904C11.0774 2.14525 9.92527 1.67181 8.71084 1.53799C7.49641 1.40417 6.26886 1.61538 5.169 2.14741C4.06914 2.67943 3.14153 3.51072 2.49257 4.5459C1.84361 5.58108 1.4996 6.77822 1.5 8Z" fill="#425462"/>
</g>
<defs>
<clipPath id="clip0_150_1134">
<rect width="16" height="16" fill="white"/>
</clipPath>
</defs>
</svg>
