<svg width="113" height="26" viewBox="0 0 113 26" fill="none" xmlns="http://www.w3.org/2000/svg">
<path d="M0 12.6667V2H10.6667V12.6667H0ZM2.66667 10H8V4.66667H2.66667V10ZM0 26V15.3333H10.6667V26H0ZM2.66667 23.3333H8V18H2.66667V23.3333ZM13.3333 12.6667V2H24V12.6667H13.3333ZM16 10H21.3333V4.66667H16V10ZM21.3333 26V23.3333H24V26H21.3333ZM13.3333 18V15.3333H16V18H13.3333ZM16 20.6667V18H18.6667V20.6667H16ZM13.3333 23.3333V20.6667H16V23.3333H13.3333ZM16 26V23.3333H18.6667V26H16ZM18.6667 23.3333V20.6667H21.3333V23.3333H18.6667ZM18.6667 18V15.3333H21.3333V18H18.6667ZM21.3333 20.6667V18H24V20.6667H21.3333Z" fill="#425462"/>
<path d="M94.54 0H105.46C109.62 0 113 3.38 113 7.54V18.46C113 20.4597 112.206 22.3776 110.792 23.7916C109.378 25.2056 107.46 26 105.46 26H94.54C90.38 26 87 22.62 87 18.46V7.54C87 5.54027 87.7944 3.62244 89.2084 2.20842C90.6224 0.794391 92.5403 0 94.54 0ZM94.28 2.6C93.0388 2.6 91.8484 3.09307 90.9707 3.97074C90.0931 4.84841 89.6 6.03879 89.6 7.28V18.72C89.6 21.307 91.693 23.4 94.28 23.4H105.72C106.961 23.4 108.152 22.9069 109.029 22.0293C109.907 21.1516 110.4 19.9612 110.4 18.72V7.28C110.4 4.693 108.307 2.6 105.72 2.6H94.28ZM106.825 4.55C107.256 4.55 107.669 4.7212 107.974 5.02595C108.279 5.3307 108.45 5.74402 108.45 6.175C108.45 6.60598 108.279 7.0193 107.974 7.32405C107.669 7.62879 107.256 7.8 106.825 7.8C106.394 7.8 105.981 7.62879 105.676 7.32405C105.371 7.0193 105.2 6.60598 105.2 6.175C105.2 5.74402 105.371 5.3307 105.676 5.02595C105.981 4.7212 106.394 4.55 106.825 4.55ZM100 6.5C101.724 6.5 103.377 7.18482 104.596 8.40381C105.815 9.62279 106.5 11.2761 106.5 13C106.5 14.7239 105.815 16.3772 104.596 17.5962C103.377 18.8152 101.724 19.5 100 19.5C98.2761 19.5 96.6228 18.8152 95.4038 17.5962C94.1848 16.3772 93.5 14.7239 93.5 13C93.5 11.2761 94.1848 9.62279 95.4038 8.40381C96.6228 7.18482 98.2761 6.5 100 6.5ZM100 9.1C98.9657 9.1 97.9737 9.51089 97.2423 10.2423C96.5109 10.9737 96.1 11.9657 96.1 13C96.1 14.0343 96.5109 15.0263 97.2423 15.7577C97.9737 16.4891 98.9657 16.9 100 16.9C101.034 16.9 102.026 16.4891 102.758 15.7577C103.489 15.0263 103.9 14.0343 103.9 13C103.9 11.9657 103.489 10.9737 102.758 10.2423C102.026 9.51089 101.034 9.1 100 9.1Z" fill="#425462"/>
<path d="M85.3536 13.8536C85.5488 13.6583 85.5488 13.3417 85.3536 13.1464L82.1716 9.96447C81.9763 9.7692 81.6597 9.7692 81.4645 9.96447C81.2692 10.1597 81.2692 10.4763 81.4645 10.6716L84.2929 13.5L81.4645 16.3284C81.2692 16.5237 81.2692 16.8403 81.4645 17.0355C81.6597 17.2308 81.9763 17.2308 82.1716 17.0355L85.3536 13.8536ZM28 14H29.0179V13H28V14ZM31.0536 14H33.0893V13H31.0536V14ZM35.125 14H37.1607V13H35.125V14ZM39.1964 14H41.2321V13H39.1964V14ZM43.2679 14H45.3036V13H43.2679V14ZM47.3393 14H49.375V13H47.3393V14ZM51.4107 14H53.4464V13H51.4107V14ZM55.4821 14H57.5179V13H55.4821V14ZM59.5536 14H61.5893V13H59.5536V14ZM63.625 14H65.6607V13H63.625V14ZM67.6964 14H69.7321V13H67.6964V14ZM71.7679 14H73.8036V13H71.7679V14ZM75.8393 14H77.875V13H75.8393V14ZM79.9107 14H81.9464V13H79.9107V14ZM83.9821 14H85V13H83.9821V14Z" fill="black"/>
</svg>
